<?xml version="1.0" encoding="iso-8859-1"?>
<!-- Generator: Adobe Illustrator 19.0.0, SVG Export Plug-In . SVG Version: 6.00 Build 0)  -->
<svg version="1.1" id="Capa_1" xmlns="http://www.w3.org/2000/svg" xmlns:xlink="http://www.w3.org/1999/xlink" x="0px" y="0px"
	 viewBox="0 0 512 512" style="enable-background:new 0 0 512 512;" xml:space="preserve">
<path style="fill:#B4EBFA;" d="M396,504.5H156c-8.837,0-16-7.163-16-16V208l-48-64h320v344.5C412,497.337,404.837,504.5,396,504.5z"
	/>
<g>
	<rect x="140" y="304" style="fill:#83DDF2;" width="272" height="16"/>
	<polyline style="fill:#83DDF2;" points="188,320 188,208 140,144 92,144 140,208 140,320 	"/>
</g>
<path style="fill:#FF5A6E;" d="M396,504.5H156c-8.837,0-16-7.163-16-16V320h272v168.5C412,497.337,404.837,504.5,396,504.5z"/>
<path style="fill:#D72850;" d="M187,321v185h-31c-8.84,0-17-8.66-17-17.5V321H187z"/>
<g>
	<circle style="fill:#FFFFFF;" cx="236" cy="368" r="16"/>
	<circle style="fill:#FFFFFF;" cx="364" cy="440" r="24"/>
	<circle style="fill:#FFFFFF;" cx="268" cy="240" r="16"/>
	<rect x="220" y="264.5" style="fill:#FFFFFF;" width="16" height="15"/>
	<rect x="220" y="216.5" style="fill:#FFFFFF;" width="16" height="15"/>
	<rect x="220" y="168.5" style="fill:#FFFFFF;" width="16" height="15"/>
</g>
<circle style="fill:#82E8DF;" cx="363.5" cy="23.5" r="16"/>
<circle style="fill:#FF5A6E;" cx="411.5" cy="87.5" r="16"/>
<circle style="fill:#FFFFFF;" cx="315.5" cy="87.5" r="16"/>
<circle style="fill:#FF5A6E;" cx="172.5" cy="87.5" r="16"/>
<circle style="fill:#82E8DF;" cx="124.5" cy="23.5" r="16"/>
<circle style="fill:#FFFFFF;" cx="220.5" cy="23.5" r="16"/>
<path d="M236,344.5c-12.958,0-23.5,10.542-23.5,23.5s10.542,23.5,23.5,23.5s23.5-10.542,23.5-23.5S248.958,344.5,236,344.5z
	 M236,376.5c-4.686,0-8.5-3.813-8.5-8.5s3.814-8.5,8.5-8.5s8.5,3.813,8.5,8.5S240.686,376.5,236,376.5z"/>
<path d="M332.5,440c0,17.369,14.131,31.5,31.5,31.5s31.5-14.131,31.5-31.5s-14.131-31.5-31.5-31.5S332.5,422.631,332.5,440z
	 M380.5,440c0,9.098-7.402,16.5-16.5,16.5s-16.5-7.402-16.5-16.5s7.402-16.5,16.5-16.5S380.5,430.902,380.5,440z"/>
<path d="M132,210.5v278c0,12.958,11.042,23.5,24,23.5h240c12.958,0,23-10.542,23-23.5V137H77L132,210.5z M404,488.5
	c0,4.687-3.314,8.5-8,8.5H156c-4.686,0-9-3.813-9-8.5V328h17v144h40v-15h-25v-33h25v-15h-25v-33h25v-15h-25v-33h201v-15H179v-33h25
	v-15h-25v-33h25v-15h-25v-33h25v-15h-40v144h-17V205.5L107,152h297V488.5z"/>
<path d="M268,263.5c12.958,0,23.5-10.542,23.5-23.5s-10.542-23.5-23.5-23.5s-23.5,10.542-23.5,23.5S255.042,263.5,268,263.5z
	 M268,231.5c4.686,0,8.5,3.813,8.5,8.5s-3.814,8.5-8.5,8.5s-8.5-3.813-8.5-8.5S263.314,231.5,268,231.5z"/>
<path d="M411.5,64c-2.719,0-5.329,0.469-7.76,1.323l-21.127-28.175C385.37,33.297,387,28.587,387,23.5C387,10.542,376.458,0,363.5,0
	S340,10.542,340,23.5c0,4.785,1.441,9.238,3.907,12.955l-21.444,28.598C320.262,64.369,317.923,64,315.5,64
	C302.542,64,292,74.542,292,87.5s10.542,23.5,23.5,23.5S339,100.458,339,87.5c0-5.087-1.63-9.797-4.388-13.648l21.127-28.175
	C358.171,46.53,360.781,47,363.5,47c2.423,0,4.762-0.369,6.962-1.053l21.444,28.598c-1.115,1.68-2.016,3.511-2.672,5.455H347v15
	h42.234c3.138,9.29,11.93,16,22.266,16c12.958,0,23.5-10.542,23.5-23.5S424.458,64,411.5,64z M315.5,96c-4.686,0-8.5-3.813-8.5-8.5
	s3.814-8.5,8.5-8.5s8.5,3.813,8.5,8.5S320.186,96,315.5,96z M355,23.5c0-4.687,3.814-8.5,8.5-8.5s8.5,3.813,8.5,8.5
	s-3.814,8.5-8.5,8.5S355,28.187,355,23.5z M411.5,96c-4.686,0-8.5-3.813-8.5-8.5s3.814-8.5,8.5-8.5s8.5,3.813,8.5,8.5
	S416.186,96,411.5,96z"/>
<path d="M124.5,47c2.423,0,4.762-0.369,6.963-1.053l21.445,28.596C150.441,78.26,149,82.714,149,87.5
	c0,12.958,10.542,23.5,23.5,23.5S196,100.458,196,87.5c0-5.087-1.63-9.797-4.387-13.648l21.127-28.175
	C215.171,46.53,217.781,47,220.5,47c12.958,0,23.5-10.542,23.5-23.5S233.458,0,220.5,0S197,10.542,197,23.5
	c0,4.785,1.441,9.238,3.907,12.955l-21.444,28.598C177.262,64.369,174.923,64,172.5,64c-2.718,0-5.328,0.469-7.758,1.322
	l-21.129-28.174c1.336-1.865,2.405-3.932,3.153-6.147H188V16h-41.234c-3.138-9.29-11.93-16-22.266-16C111.542,0,101,10.542,101,23.5
	S111.542,47,124.5,47z M220.5,15c4.686,0,8.5,3.813,8.5,8.5s-3.814,8.5-8.5,8.5s-8.5-3.813-8.5-8.5S215.814,15,220.5,15z M181,87.5
	c0,4.687-3.814,8.5-8.5,8.5s-8.5-3.813-8.5-8.5s3.814-8.5,8.5-8.5S181,82.813,181,87.5z M124.5,15c4.686,0,8.5,3.813,8.5,8.5
	s-3.814,8.5-8.5,8.5c-4.687,0-8.5-3.813-8.5-8.5S119.813,15,124.5,15z"/>
<g>
</g>
<g>
</g>
<g>
</g>
<g>
</g>
<g>
</g>
<g>
</g>
<g>
</g>
<g>
</g>
<g>
</g>
<g>
</g>
<g>
</g>
<g>
</g>
<g>
</g>
<g>
</g>
<g>
</g>
</svg>
